<svg width="42" height="42" viewBox="0 0 42 42" fill="none" xmlns="http://www.w3.org/2000/svg">
<circle cx="21" cy="21" r="21" fill="#E65353"/>
<g clip-path="url(#clip0_75_51)">
<path d="M14.125 28.3123C14.125 28.7599 14.3028 29.1891 14.6193 29.5056C14.9357 29.822 15.3649 29.9998 15.8125 29.9998H25.9375C26.3851 29.9998 26.8143 29.822 27.1307 29.5056C27.4472 29.1891 27.625 28.7599 27.625 28.3123V16.4998H14.125V28.3123ZM23.6875 19.3123C23.6875 19.1631 23.7468 19.0201 23.8523 18.9146C23.9577 18.8091 24.1008 18.7498 24.25 18.7498C24.3992 18.7498 24.5423 18.8091 24.6477 18.9146C24.7532 19.0201 24.8125 19.1631 24.8125 19.3123V27.1873C24.8125 27.3365 24.7532 27.4796 24.6477 27.5851C24.5423 27.6906 24.3992 27.7498 24.25 27.7498C24.1008 27.7498 23.9577 27.6906 23.8523 27.5851C23.7468 27.4796 23.6875 27.3365 23.6875 27.1873V19.3123ZM20.3125 19.3123C20.3125 19.1631 20.3718 19.0201 20.4773 18.9146C20.5827 18.8091 20.7258 18.7498 20.875 18.7498C21.0242 18.7498 21.1673 18.8091 21.2727 18.9146C21.3782 19.0201 21.4375 19.1631 21.4375 19.3123V27.1873C21.4375 27.3365 21.3782 27.4796 21.2727 27.5851C21.1673 27.6906 21.0242 27.7498 20.875 27.7498C20.7258 27.7498 20.5827 27.6906 20.4773 27.5851C20.3718 27.4796 20.3125 27.3365 20.3125 27.1873V19.3123ZM16.9375 19.3123C16.9375 19.1631 16.9968 19.0201 17.1023 18.9146C17.2077 18.8091 17.3508 18.7498 17.5 18.7498C17.6492 18.7498 17.7923 18.8091 17.8977 18.9146C18.0032 19.0201 18.0625 19.1631 18.0625 19.3123V27.1873C18.0625 27.3365 18.0032 27.4796 17.8977 27.5851C17.7923 27.6906 17.6492 27.7498 17.5 27.7498C17.3508 27.7498 17.2077 27.6906 17.1023 27.5851C16.9968 27.4796 16.9375 27.3365 16.9375 27.1873V19.3123ZM28.1875 13.1248H23.9688L23.6383 12.4674C23.5683 12.3269 23.4604 12.2086 23.3269 12.126C23.1934 12.0434 23.0394 11.9997 22.8824 11.9998H18.8641C18.7074 11.9992 18.5537 12.0428 18.4207 12.1255C18.2876 12.2082 18.1805 12.3267 18.1117 12.4674L17.7812 13.1248H13.5625C13.4133 13.1248 13.2702 13.1841 13.1648 13.2896C13.0593 13.3951 13 13.5381 13 13.6873V14.8123C13 14.9615 13.0593 15.1046 13.1648 15.2101C13.2702 15.3156 13.4133 15.3748 13.5625 15.3748H28.1875C28.3367 15.3748 28.4798 15.3156 28.5852 15.2101C28.6907 15.1046 28.75 14.9615 28.75 14.8123V13.6873C28.75 13.5381 28.6907 13.3951 28.5852 13.2896C28.4798 13.1841 28.3367 13.1248 28.1875 13.1248V13.1248Z" fill="white"/>
</g>
<defs>
<clipPath id="clip0_75_51">
<rect width="15.75" height="18" fill="white" transform="translate(13 12)"/>
</clipPath>
</defs>
</svg>
