<svg width="42" height="42" viewBox="0 0 42 42" fill="none" xmlns="http://www.w3.org/2000/svg">
<circle cx="21" cy="21" r="21" fill="#206E3A"/>
<path d="M15 11L12 15V29C12 29.5304 12.2107 30.0391 12.5858 30.4142C12.9609 30.7893 13.4696 31 14 31H28C28.5304 31 29.0391 30.7893 29.4142 30.4142C29.7893 30.0391 30 29.5304 30 29V15L27 11H15Z" stroke="white" stroke-width="2" stroke-linecap="round" stroke-linejoin="round"/>
<path d="M12 15H30" stroke="white" stroke-width="2" stroke-linecap="round" stroke-linejoin="round"/>
<path d="M25 19C25 20.0609 24.5786 21.0783 23.8284 21.8284C23.0783 22.5786 22.0609 23 21 23C19.9391 23 18.9217 22.5786 18.1716 21.8284C17.4214 21.0783 17 20.0609 17 19" stroke="white" stroke-width="2" stroke-linecap="round" stroke-linejoin="round"/>
</svg>
